<?xml version="1.0" encoding="UTF-8"?>
<svg width="20px" height="18px" viewBox="0 0 20 18" version="1.1" xmlns="http://www.w3.org/2000/svg" xmlns:xlink="http://www.w3.org/1999/xlink">
    <!-- Generator: Sketch 61 (89581) - https://sketch.com -->
    <title>Icon - My Addresses</title>
    <desc>Created with Sketch.</desc>
    <g id="Page-1" stroke="none" stroke-width="1" fill="none" fill-rule="evenodd">
        <g id="Settings---Mnemonic" transform="translate(-63.000000, -242.000000)">
            <g id="Group-2" transform="translate(29.000000, -85.000000)">
               
                <g id="My-Addresses" transform="translate(32.000000, 323.000000)">
                    <g id="Icon---My-Addresses" transform="translate(0.000000, 0.500000)">
                        <rect id="Rectangle" x="0" y="0" width="24" height="24"></rect>
                        <g id="Group-26" transform="translate(3.230886, 4.000000)" stroke="#FFFFFF" stroke-linecap="round" stroke-linejoin="round" stroke-width="1.5">
                            <g id="House-1" transform="translate(0.220593, 0.437093)">
                                <polyline id="Stroke-203" points="16.0455373 2.87147253 16.0455373 15.3335708 1.16269297 15.3335708 1.16269297 2.89352614"></polyline>
                                <polyline id="Shape" points="17.2091658 3.46174824 8.60424877 0 5.68434189e-14 3.46174824"></polyline>
                                <path d="M11.0398359,15.3337712 L6.16866162,15.3337712 L6.16866162,12.2412711 C6.16866162,11.059794 7.2593128,10.1025216 8.60391463,10.1025216 C9.94918475,10.1025216 11.0398359,11.059794 11.0398359,12.2412711 L11.0398359,15.3337712 Z" id="Stroke-207"></path>
                                <path d="M9.97016909,5.60438746 C9.97016909,6.35955648 9.35868267,6.97104289 8.60418194,6.97104289 C7.84968122,6.97104289 7.2381948,6.35955648 7.2381948,5.60438746 C7.2381948,4.84988673 7.84968122,4.23840031 8.60418194,4.23840031 C9.35868267,4.23840031 9.97016909,4.84988673 9.97016909,5.60438746 Z" id="Stroke-209"></path>
                            </g>
                        </g>
                    </g>
                </g>
            </g>
        </g>
    </g>
</svg>