<?xml version="1.0" encoding="UTF-8"?>
<svg width="19px" height="18px" viewBox="0 0 19 18" version="1.1" xmlns="http://www.w3.org/2000/svg" xmlns:xlink="http://www.w3.org/1999/xlink">
    <!-- Generator: Sketch 61 (89581) - https://sketch.com -->
    <title>Icon - Dashboard</title>
    <desc>Created with Sketch.</desc>
    <g id="Page-1" stroke="none" stroke-width="1" fill="none" fill-rule="evenodd">
        <g id="Settings---Mnemonic" transform="translate(-153.000000, -205.000000)">
            <g id="Group-2" transform="translate(118.000000, 49.000000)">
                
                <g id="Menu---Dashboard" transform="translate(32.000000, 152.000000)">
                    <g id="Icon---Dashboard" transform="translate(0.000000, 1.000000)">
                        <rect id="Rectangle" x="0" y="0" width="24" height="24"></rect>
                        <rect id="Rectangle" stroke="#FFFFFF" stroke-width="1.5" stroke-linecap="round" stroke-linejoin="round" x="4" y="4" width="7" height="8" rx="1"></rect>
                        <rect id="Rectangle-Copy-4" stroke="#FFFFFF" stroke-width="1.5" stroke-linecap="round" stroke-linejoin="round" x="14" y="12" width="7" height="8" rx="1"></rect>
                        <path d="M15,4 L20,4 C20.5522847,4 21,4.44771525 21,5 L21,8 C21,8.55228475 20.5522847,9 20,9 L15,9 C14.4477153,9 14,8.55228475 14,8 L14,5 C14,4.44771525 14.4477153,4 15,4 Z" id="Rectangle-Copy-7" stroke="#FFFFFF" stroke-width="1.5" stroke-linecap="round" stroke-linejoin="round"></path>
                        <path d="M5,15 L10,15 C10.5522847,15 11,15.4477153 11,16 L11,19 C11,19.5522847 10.5522847,20 10,20 L5,20 C4.44771525,20 4,19.5522847 4,19 L4,16 C4,15.4477153 4.44771525,15 5,15 Z" id="Rectangle-Copy-8" stroke="#FFFFFF" stroke-width="1.5" stroke-linecap="round" stroke-linejoin="round"></path>
                    </g>
                </g>
            </g>
        </g>
    </g>
</svg>