<?xml version="1.0" encoding="UTF-8"?>
<svg width="20px" height="21px" viewBox="0 0 20 21" version="1.1" xmlns="http://www.w3.org/2000/svg" xmlns:xlink="http://www.w3.org/1999/xlink">
    <!-- Generator: Sketch 61 (89581) - https://sketch.com -->
    <title>Icon - Help</title>
    <desc>Created with Sketch.</desc>
    <g id="Page-1" stroke="none" stroke-width="1" fill="none" fill-rule="evenodd">
        <g id="Settings---Mnemonic" transform="translate(-63.000000, -386.000000)">
            <g id="Group-2" transform="translate(29.000000, -85.000000)">
                
                <g id="Help" transform="translate(32.000000, 469.000000)">
                    <g id="Icon---Help" transform="translate(0.000000, 0.500000)">
                        <rect id="Rectangle" x="0" y="0" width="24" height="24"></rect>
                        <circle id="Oval" stroke="#FFFFFF" stroke-width="1.5" stroke-linecap="round" stroke-linejoin="round" cx="12" cy="12" r="9"></circle>
                        <circle id="Oval-Copy" stroke="#FFFFFF" stroke-width="1.5" stroke-linecap="round" stroke-linejoin="round" cx="12" cy="12" r="4.83443376"></circle>
                        <g id="Group-31" transform="translate(10.000000, 3.267765)" stroke="#FFFFFF" stroke-linecap="round" stroke-linejoin="round" stroke-width="1.5">
                            <path d="M4,0 L4,3.73223452 M0,3.73223452 L0,0 L0,0" id="Shape"></path>
                            <path d="M4,13.5666683 L4,17.2989028 M0,17.2989028 L0,13.5666683 L0,13.5666683" id="Shape-Copy"></path>
                        </g>
                        <g id="Group-31-Copy" transform="translate(11.676113, 12.267765) rotate(-270.000000) translate(-11.676113, -12.267765) translate(9.676113, 3.267765)" stroke="#FFFFFF" stroke-linecap="round" stroke-linejoin="round" stroke-width="1.5">
                            <path d="M4,0 L4,3.73223452 M0,3.73223452 L0,0 L0,0" id="Shape"></path>
                            <path d="M4,13.5666683 L4,17.2989028 M0,17.2989028 L0,13.5666683 L0,13.5666683" id="Shape-Copy"></path>
                        </g>
                    </g>
                </g>
            </g>
        </g>
    </g>
</svg>