<?xml version="1.0" encoding="UTF-8"?>
<svg width="20px" height="20px" viewBox="0 0 20 20" version="1.1" xmlns="http://www.w3.org/2000/svg" xmlns:xlink="http://www.w3.org/1999/xlink">
    <!-- Generator: Sketch 61 (89581) - https://sketch.com -->
    <title>Icon - My Invoices</title>
    <desc>Created with Sketch.</desc>
    <g id="Page-1" stroke="none" stroke-width="1" fill="none" fill-rule="evenodd">
        <g id="Settings---Mnemonic" transform="translate(-63.000000, -184.000000)">
            <g id="Group-2" transform="translate(29.000000, -85.000000)">
                
                <g id="Menu---My-Invoices---SELECTED" transform="translate(32.000000, 266.000000)">
                    <g id="Group">
                        <g id="Icon---My-Invoices" transform="translate(0.000000, 1.000000)">
                            <rect id="Rectangle" x="0" y="0" width="24" height="24"></rect>
                            <g id="Group-26" transform="translate(3.622915, 3.590754)">
                                <polygon id="Rectangle" stroke="#FFFFFF" stroke-width="1.5" stroke-linecap="round" stroke-linejoin="round" points="0 0 16.9641965 0 16.9641965 16.9641965 12.7231473 14.1368304 8.48209823 16.9641965 4.24104912 14.1368304 0 16.9641965"></polygon>
                                <path d="M11.3117554,9.04214074 C11.3117554,9.61271089 11.1120589,10.0959052 10.7126598,10.4917383 C10.3132607,10.8875713 9.78192518,11.135409 9.11863737,11.2352588 L9.11863737,12.4120538 L8.02742742,12.4120538 L8.02742742,11.2566551 C7.54957492,11.2209944 7.10917269,11.1282782 6.70620752,10.9785035 C6.30324235,10.8287288 5.95199037,10.6290323 5.65244104,10.3794078 L6.11246092,9.38448112 C6.47619939,9.65550194 6.84528142,9.8551985 7.21971809,9.98357678 C7.59415475,10.1119551 7.99889688,10.1761432 8.43395662,10.1761432 C8.91894125,10.1761432 9.29158929,10.083427 9.55191192,9.89799169 C9.81223455,9.71255639 9.94239391,9.44510564 9.94239391,9.09563143 C9.94239391,8.88879975 9.87107371,8.72119728 9.72843117,8.59281899 C9.58578864,8.46444071 9.40927114,8.36280943 9.1988734,8.28792209 C8.98847566,8.21303476 8.69071383,8.12566752 8.30557898,8.02581774 C7.76353733,7.89030733 7.32491811,7.75301595 6.98970814,7.61393947 C6.65449818,7.474863 6.36565137,7.2609024 6.12315906,6.97205126 C5.88066675,6.68320012 5.75942241,6.29628804 5.75942241,5.81130342 C5.75942241,5.24073326 5.96803399,4.7521899 6.38526341,4.34565867 C6.80249284,3.93912744 7.34274334,3.68594073 8.00603114,3.58609095 L8.00603114,2.4092959 L9.0972411,2.4092959 L9.0972411,3.57539282 C9.50377233,3.6253177 9.89068441,3.72516598 10.2579889,3.87494065 C10.6252935,4.02471531 10.9301873,4.21014783 11.1726796,4.43124376 L10.7126598,5.42617049 C10.049372,4.90552523 9.33973598,4.6452065 8.58373053,4.6452065 C8.14153867,4.6452065 7.79028669,4.74148877 7.52996405,4.93405619 C7.26964142,5.12662362 7.13948206,5.39407437 7.13948206,5.73641646 C7.13948206,5.97177664 7.21436827,6.16255818 7.36414293,6.30876678 C7.5139176,6.45497538 7.70469913,6.5708707 7.93649325,6.65645623 C8.16828738,6.74204175 8.48031325,6.831192 8.87258023,6.92390965 C9.39322549,7.05228793 9.81579767,7.18244729 10.1403094,7.31439164 C10.4648212,7.44633599 10.741187,7.65138156 10.969415,7.92953451 C11.1976431,8.20768746 11.3117554,8.57855249 11.3117554,9.04214074 Z" id="$" fill="#FFFFFF" fill-rule="nonzero"></path>
                            </g>
                        </g>
                    </g>
                </g>
            </g>
        </g>
    </g>
</svg>