<?xml version="1.0" encoding="UTF-8"?>
<svg width="15px" height="19px" viewBox="0 0 15 19" version="1.1" xmlns="http://www.w3.org/2000/svg" xmlns:xlink="http://www.w3.org/1999/xlink">
    <!-- Generator: Sketch 61 (89581) - https://sketch.com -->
    <title>Group 3 Copy 2</title>
    <desc>Created with Sketch.</desc>
   
    <g id="Page-1" stroke="none" stroke-width="1" fill="none" fill-rule="evenodd">
        <g id="Settings---Mnemonic" transform="translate(-584.000000, -452.000000)">
            <g id="Background" transform="translate(501.000000, 77.000000)">
                <mask id="mask-3" fill="white">
                    <use xlink:href="#path-2"></use>
                </mask>
                <use id="Rectangle" fill="url(#linearGradient-1)" fill-rule="nonzero" xlink:href="#path-2"></use>
            </g>
            <g id="Group-22" transform="translate(278.000000, 442.000000)">
                <g id="Group-13" transform="translate(269.000000, 0.000000)">
                    <g id="Rectangle-9">
                        <use fill="black" fill-opacity="1" filter="url(#filter-5)" xlink:href="#path-4"></use>
                        <use fill-opacity="0.2" fill="#FFFFFF" fill-rule="evenodd" xlink:href="#path-4"></use>
                    </g>
                    <g id="Group-11" transform="translate(32.000000, 8.000000)">
                        <g id="Group-3-Copy-2">
                            <rect id="Rectangle-6" opacity="0.100000001" fill-rule="nonzero" x="0.774193548" y="0" width="23.2258065" height="23.2258065"></rect>
                            <g id="Group-40" transform="translate(5.992547, 3.110930)">
                                <g id="Group-3-Copy-3" transform="translate(0.195440, 0.082172)" fill-rule="nonzero" stroke="#FFFFFF" stroke-linecap="round" stroke-linejoin="round" stroke-width="1.5">
                                    <path d="M0.247681889,6.38337681 L0.247681889,2.30390889 C0.247681889,1.25861971 1.0950562,0.4112454 2.14034538,0.4112454 L7.63195434,0.4112454 C8.10711986,0.4112454 8.56490153,0.58997572 8.91436602,0.911933539 L12.2551867,3.98979509 C12.6441522,4.34814482 12.8654385,4.85289546 12.8654385,5.38177044 L12.8654385,14.9216655 C12.8654385,15.9669547 12.0180642,16.814329 10.972775,16.814329 L2.14034538,16.814329 C1.0950562,16.814329 0.247681889,15.9669547 0.247681889,14.9216655 L0.247681889,13.9076596 L0.247681889,6.38337681 Z" id="Rectangle-7"></path>
                                </g>
                                <path d="M4.58123857,11.584341 C4.64495643,11.6403354 4.67681488,11.7223951 4.67681488,11.8305223 C4.67681488,11.9347879 4.64495643,12.0149168 4.58123857,12.0709112 C4.51752072,12.1269057 4.4393227,12.1549025 4.34664218,12.1549025 L3.88903442,12.1549025 C3.64574806,12.1549025 3.45652817,12.087324 3.32136908,11.9521649 C3.18620999,11.8170058 3.11863146,11.6277859 3.11863146,11.3844996 L3.11863146,10.376604 C3.11863146,10.2259982 3.09256546,10.1169071 3.04043267,10.0493276 C2.98829987,9.98174801 2.89851697,9.9421663 2.77108126,9.93058123 C2.66681567,9.92285785 2.58668685,9.88906859 2.53069237,9.82921242 C2.47469789,9.76935625 2.44670107,9.68922742 2.44670107,9.58882353 C2.44670107,9.49614301 2.47469789,9.41987581 2.53069237,9.36001965 C2.58668685,9.30016348 2.66681567,9.26637421 2.77108126,9.25865084 C2.89851697,9.24706577 2.98829987,9.20748406 3.04043267,9.13990452 C3.09256546,9.07232497 3.11863146,8.96323391 3.11863146,8.81262807 L3.11863146,7.79893998 C3.11863146,7.55565362 3.18620999,7.36643373 3.32136908,7.23127464 C3.45652817,7.09611555 3.64574806,7.02853702 3.88903442,7.02853702 L4.34664218,7.02853702 C4.4393227,7.02853702 4.51752072,7.05653384 4.58123857,7.11252832 C4.64495643,7.1685228 4.67681488,7.24865163 4.67681488,7.35291721 C4.67681488,7.46104448 4.64495643,7.54310413 4.58123857,7.59909861 C4.51752072,7.65509309 4.4393227,7.68308991 4.34664218,7.68308991 L4.21341461,7.68308991 C4.13231915,7.68308991 4.07246388,7.70143265 4.033847,7.73811869 C3.99523012,7.77480473 3.97592197,7.83948704 3.97592197,7.93216755 L3.97592197,8.91689313 C3.97592197,9.09066911 3.92765159,9.23934187 3.83110938,9.3629159 C3.73456718,9.48648992 3.6225799,9.56372253 3.49514418,9.59461603 C3.6225799,9.62550954 3.73456718,9.70274215 3.83110938,9.82631617 C3.92765159,9.94989019 3.97592197,10.098563 3.97592197,10.2723389 L3.97592197,11.251272 C3.97592197,11.3439525 3.99523012,11.4086348 4.033847,11.4453209 C4.07246388,11.4820069 4.13231915,11.5003497 4.21341461,11.5003497 L4.34664218,11.5003497 C4.4393227,11.5003497 4.51752072,11.5283465 4.58123857,11.584341 Z M6.29239138,11.6338137 C6.20936508,11.5643033 6.16785255,11.4619701 6.16785255,11.326811 L6.16785255,9.80361903 C6.16785255,9.66845995 6.21033049,9.56612674 6.29528763,9.49661635 C6.38024477,9.42710596 6.48450879,9.39235129 6.60808281,9.39235129 C6.73165684,9.39235129 6.83495545,9.42710596 6.91798174,9.49661635 C7.00100804,9.56612674 7.04252057,9.66845995 7.04252057,9.80361903 L7.04252057,11.326811 C7.04252057,11.4619701 7.00100804,11.5643033 6.91798174,11.6338137 C6.83495545,11.7033241 6.73165684,11.7380787 6.60808281,11.7380787 C6.4806471,11.7380787 6.37541767,11.7033241 6.29239138,11.6338137 Z M10.6796808,9.36001965 C10.7356752,9.41987581 10.7636721,9.49614301 10.7636721,9.58882353 C10.7636721,9.68922742 10.7356752,9.76935625 10.6796808,9.82921242 C10.6236863,9.88906859 10.5435574,9.92285785 10.4392919,9.93058123 C10.3118561,9.9421663 10.2220732,9.98174801 10.1699405,10.0493276 C10.1178077,10.1169071 10.0917417,10.2259982 10.0917417,10.376604 L10.0859492,11.3844996 C10.0859492,11.6277859 10.0183706,11.8170058 9.88321153,11.9521649 C9.74805245,12.087324 9.56076337,12.1549025 9.3213387,12.1549025 L8.85793843,12.1549025 C8.7691196,12.1549025 8.6928524,12.1269057 8.62913455,12.0709112 C8.56541669,12.0149168 8.53355824,11.9347879 8.53355824,11.8305223 C8.53355824,11.7223951 8.56541669,11.6403354 8.62913455,11.584341 C8.6928524,11.5283465 8.7691196,11.5003497 8.85793843,11.5003497 L8.99695851,11.5003497 C9.07805397,11.5003497 9.13790924,11.4820069 9.17652612,11.4453209 C9.215143,11.4086348 9.23445115,11.3439525 9.23445115,11.251272 L9.23445115,10.2723389 C9.23445115,10.098563 9.28272153,9.94989019 9.37926374,9.82631617 C9.47580594,9.70274215 9.58779322,9.62550954 9.71522894,9.59461603 C9.58779322,9.56372253 9.47580594,9.48648992 9.37926374,9.3629159 C9.28272153,9.23934187 9.23445115,9.09066911 9.23445115,8.91689313 L9.23445115,7.93216755 C9.23445115,7.83948704 9.215143,7.77480473 9.17652612,7.73811869 C9.13790924,7.70143265 9.07805397,7.68308991 8.99695851,7.68308991 L8.85793843,7.68308991 C8.7691196,7.68308991 8.6928524,7.65509309 8.62913455,7.59909861 C8.56541669,7.54310413 8.53355824,7.46104448 8.53355824,7.35291721 C8.53355824,7.24865163 8.56541669,7.1685228 8.62913455,7.11252832 C8.6928524,7.05653384 8.7691196,7.02853702 8.85793843,7.02853702 L9.3213387,7.02853702 C9.56076337,7.02853702 9.74805245,7.09611555 9.88321153,7.23127464 C10.0183706,7.36643373 10.0859492,7.55565362 10.0859492,7.79893998 L10.0859492,8.81262807 C10.0859492,8.96323391 10.1120152,9.07232497 10.1641479,9.13990452 C10.2162807,9.20748406 10.3079945,9.24706577 10.4392919,9.25865084 C10.5435574,9.26637421 10.6236863,9.30016348 10.6796808,9.36001965 Z M6.64012736,9.06784916 C6.9665673,9.06784916 7.23119915,8.80321731 7.23119915,8.47677737 C7.23119915,8.15033744 6.9665673,7.88570558 6.64012736,7.88570558 C6.31368743,7.88570558 6.04905557,8.15033744 6.04905557,8.47677737 C6.04905557,8.80321731 6.31368743,9.06784916 6.64012736,9.06784916 Z" id="{-i-}" fill="#FFFFFF"></path>
                            </g>
                        </g>
                    </g>
                </g>
            </g>
        </g>
    </g>
</svg>