<?xml version="1.0" encoding="UTF-8"?>
<svg width="20px" height="19px" viewBox="0 0 20 19" version="1.1" xmlns="http://www.w3.org/2000/svg" xmlns:xlink="http://www.w3.org/1999/xlink">
    <!-- Generator: Sketch 61 (89581) - https://sketch.com -->
    <title>Icon - Settings</title>
    <desc>Created with Sketch.</desc>
   
    <g id="Page-1" stroke="none" stroke-width="1" fill="none" fill-rule="evenodd">
        <g id="Settings---Mnemonic" transform="translate(-63.000000, -298.000000)">
            <g id="Group-2" transform="translate(29.000000, -85.000000)">
                
                <g id="Settings" transform="translate(0.000000, 364.000000)">
                    <g id="Selected-Background">
                        <use fill="black" fill-opacity="1" filter="url(#filter-2)" xlink:href="#path-1"></use>
                        <use fill="#16CDD6" fill-rule="evenodd" xlink:href="#path-1"></use>
                    </g>
                    <g id="Group-18" transform="translate(32.000000, 16.000000)">
                        <g id="Icon---Settings" transform="translate(0.000000, 0.500000)">
                            <rect id="Rectangle" x="0" y="0" width="24" height="24"></rect>
                            <g id="Group-27" transform="translate(1.756427, 1.756427)" stroke="#FFFFFF" stroke-linecap="round" stroke-linejoin="round" stroke-width="1.5">
                                <path d="M7.68267956,18.0580864 C6.59435877,18.5071514 5.34806138,17.9889322 4.89899643,16.9006114 C4.82867822,16.7301933 4.78076362,16.5513736 4.75645195,16.3686282 C4.52246392,14.6097914 3.60176209,13.015089 2.19555877,11.933031 C1.26249672,11.2150501 1.08813905,9.87661524 1.80612003,8.94355319 C1.91854726,8.79744683 2.04945241,8.66654169 2.19555877,8.55411445 C3.60176209,7.47205648 4.52246392,5.87735412 4.75645195,4.11851734 C4.91171069,2.95147141 5.98365042,2.13125583 7.15069635,2.28651457 C7.33344178,2.31082623 7.51226153,2.35874084 7.68267956,2.42905904 C9.32287091,3.10583786 11.1642746,3.10583786 12.8044659,2.42905904 C13.8927867,1.97999409 15.1390841,2.49821334 15.5881491,3.58653413 C15.6584673,3.75695215 15.7063819,3.9357719 15.7306935,4.11851734 C15.9646816,5.87735412 16.8853834,7.47205648 18.2915867,8.55411445 C19.2246488,9.27209542 19.3990064,10.6105302 18.6810255,11.5435923 C18.5685982,11.6896987 18.4376931,11.8206038 18.2915867,11.933031 C16.8853834,13.015089 15.9646816,14.6097914 15.7306935,16.3686282 C15.5754348,17.5356741 14.5034951,18.3558897 13.3364491,18.2006309 C13.1537037,18.1763193 12.974884,18.1284046 12.8044659,18.0580864 C11.1642746,17.3813076 9.32287091,17.3813076 7.68267956,18.0580864 Z" id="Star"></path>
                                <circle id="Oval" cx="10.2435727" cy="10.2435727" r="2.73060662"></circle>
                            </g>
                        </g>
                    </g>
                </g>
            </g>
        </g>
    </g>
</svg>