<?xml version="1.0" encoding="UTF-8"?>
<svg width="16px" height="21px" viewBox="0 0 16 21" version="1.1" xmlns="http://www.w3.org/2000/svg" xmlns:xlink="http://www.w3.org/1999/xlink">
    <!-- Generator: Sketch 61 (89581) - https://sketch.com -->
    <title>Group 3 Copy</title>
    <desc>Created with Sketch.</desc>
    
    <g id="Page-1" stroke="none" stroke-width="1" fill="none" fill-rule="evenodd">
        <g id="Settings---Mnemonic" transform="translate(-448.000000, -451.000000)">
            <g id="Group-22" transform="translate(278.000000, 442.000000)">
                <g id="Group-14" transform="translate(134.000000, 0.000000)">
                    <g id="Rectangle-9">
                        <use fill="black" fill-opacity="1" filter="url(#filter-2)" xlink:href="#path-1"></use>
                        <use fill-opacity="0.2" fill="#FFFFFF" fill-rule="evenodd" xlink:href="#path-1"></use>
                    </g>
                    <g id="Group-9" transform="translate(32.000000, 8.000000)" fill-rule="nonzero">
                        <g id="Group-3-Copy">
                            <rect id="Rectangle-6" opacity="0.100000001" x="0.774193548" y="0" width="23.2258065" height="23.2258065"></rect>
                            <g id="Group-39" transform="translate(5.143847, 2.049574)" stroke="#FFFFFF" stroke-linecap="round" stroke-linejoin="round">
                                <path d="M0.269836345,6.95435211 L0.269836345,2.50998713 C0.269836345,1.37119974 1.19300593,0.448030157 2.33179332,0.448030157 L8.31461143,0.448030157 C8.83227919,0.448030157 9.33100815,0.642747407 9.71173127,0.993503458 L13.351379,4.34667117 C13.7751365,4.73707428 14.0162162,5.28697347 14.0162162,5.86315484 L14.0162162,16.256367 C14.0162162,17.3951544 13.0930466,18.3183239 11.9542592,18.3183239 L2.33179332,18.3183239 C1.19300593,18.3183239 0.269836345,17.3951544 0.269836345,16.256367 L0.269836345,15.1516611 L0.269836345,6.95435211 Z" id="Rectangle-7" stroke-width="1.3"></path>
                                <g id="Group-6" transform="translate(2.435774, 7.522263)" stroke-width="1.5">
                                    <polyline id="Rectangle-8" transform="translate(1.850226, 2.976201) rotate(-45.000000) translate(-1.850226, -2.976201) " points="1.0598782 3.94133792 0.885088372 2.01106363 2.81536266 2.18585346"></polyline>
                                    <polyline id="Rectangle-8-Copy" transform="translate(7.356351, 2.976201) scale(-1, 1) rotate(-45.000000) translate(-7.356351, -2.976201) " points="6.56600364 3.94133792 6.39121381 2.01106363 8.3214881 2.18585346"></polyline>
                                    <line x1="5.78788927" y1="0.241190979" x2="3.4186872" y2="5.39306872" id="Path-3"></line>
                                </g>
                            </g>
                        </g>
                    </g>
                </g>
            </g>
        </g>
    </g>
</svg>